<svg xmlns="http://www.w3.org/2000/svg" viewBox="0 0 1200 330"><defs><linearGradient id="bg"><stop stop-color="#0b1020"/><stop offset="1" stop-color="#111827"/></linearGradient></defs><rect width="1200" height="330" rx="24" fill="url(#bg)" stroke="#334155"/><text x="600" y="60" text-anchor="middle" fill="#22d3ee" font-family="monospace" font-size="24" font-weight="700">THE ENGINEERING LOOP</text><g font-family="monospace" text-anchor="middle" fill="#e2e8f0"><g fill="#111827" stroke="#22d3ee" stroke-width="2"><rect x="55" y="120" width="170" height="70" rx="14"/><rect x="275" y="120" width="170" height="70" rx="14"/><rect x="495" y="120" width="170" height="70" rx="14"/><rect x="715" y="120" width="170" height="70" rx="14"/><rect x="935" y="120" width="210" height="70" rx="14"/></g><text x="140" y="150" font-size="18">💡 IDEA</text><text x="360" y="150" font-size="18">🐳 BUILD</text><text x="580" y="150" font-size="18">☁️ DEPLOY</text><text x="800" y="150" font-size="18">📊 OBSERVE</text><text x="1040" y="150" font-size="18">🔁 IMPROVE</text><text x="140" y="175" font-size="13" fill="#94a3b8">design / code</text><text x="360" y="175" font-size="13" fill="#94a3b8">test / package</text><text x="580" y="175" font-size="13" fill="#94a3b8">cloud / k8s</text><text x="800" y="175" font-size="13" fill="#94a3b8">metrics / logs</text><text x="1040" y="175" font-size="13" fill="#94a3b8">iterate / ship</text></g><g stroke="#a78bfa" stroke-width="3"><path d="M225 155h50M445 155h50M665 155h50M885 155h50"/></g><g fill="#22d3ee"><circle cx="250" cy="155" r="5"><animate attributeName="cx" values="225;275;225" dur="1.2s" repeatCount="indefinite"/></circle><circle cx="470" cy="155" r="5"><animate attributeName="cx" values="445;495;445" dur="1.2s" begin=".2s" repeatCount="indefinite"/></circle><circle cx="690" cy="155" r="5"><animate attributeName="cx" values="665;715;665" dur="1.2s" begin=".4s" repeatCount="indefinite"/></circle><circle cx="910" cy="155" r="5"><animate attributeName="cx" values="885;935;885" dur="1.2s" begin=".6s" repeatCount="indefinite"/></circle></g><text x="600" y="285" text-anchor="middle" fill="#94a3b8" font-family="monospace" font-size="14">automation • reproducibility • observability • continuous improvement</text></svg>
